<svg width="16" height="16" viewBox="0 0 16 16" fill="none" xmlns="http://www.w3.org/2000/svg">
<path d="M15.5308 14.9956C15.3039 14.9956 15.1068 14.8315 15.0689 14.6039C14.7306 12.6288 12.8181 9.18164 7.96666 8.9802V11.5144C7.96666 11.6899 7.86853 11.8508 7.71241 11.9312C7.55625 12.0115 7.36831 11.9978 7.22544 11.8958L0.196281 6.87495C0.0730938 6.78695 0 6.64485 0 6.49348C0 6.34207 0.0730938 6.20001 0.196281 6.11204L7.22547 1.09123C7.36831 0.989168 7.55628 0.975511 7.71241 1.05586C7.86853 1.1362 7.96666 1.29707 7.96666 1.47267V4.04501C10.9655 4.34414 16 6.50876 16 14.5268C16 14.7707 15.813 14.9739 15.5699 14.994C15.5568 14.995 15.5438 14.9956 15.5308 14.9956Z" fill="#5B5A5F"/>
</svg>
