<svg width="26" height="26" viewBox="0 0 26 26" fill="none" xmlns="http://www.w3.org/2000/svg">
<g id="calendar-silhouette 2">
<g id="Layer 93">
<path id="Vector" d="M20.5832 5.41699H19.4998V3.25033C19.4998 2.96301 19.3857 2.68746 19.1825 2.48429C18.9794 2.28113 18.7038 2.16699 18.4165 2.16699C18.1292 2.16699 17.8536 2.28113 17.6505 2.48429C17.4473 2.68746 17.3332 2.96301 17.3332 3.25033V5.41699H8.6665V3.25033C8.6665 2.96301 8.55237 2.68746 8.3492 2.48429C8.14604 2.28113 7.87049 2.16699 7.58317 2.16699C7.29585 2.16699 7.0203 2.28113 6.81714 2.48429C6.61397 2.68746 6.49984 2.96301 6.49984 3.25033V5.41699H5.4165C4.55455 5.41699 3.7279 5.7594 3.11841 6.3689C2.50891 6.97839 2.1665 7.80504 2.1665 8.66699V9.75033H23.8332V8.66699C23.8332 7.80504 23.4908 6.97839 22.8813 6.3689C22.2718 5.7594 21.4451 5.41699 20.5832 5.41699Z" fill="#5B5A5F"/>
<path id="Vector_2" d="M2.1665 20.5837C2.1665 21.4456 2.50891 22.2723 3.11841 22.8818C3.7279 23.4913 4.55455 23.8337 5.4165 23.8337H20.5832C21.4451 23.8337 22.2718 23.4913 22.8813 22.8818C23.4908 22.2723 23.8332 21.4456 23.8332 20.5837V11.917H2.1665V20.5837Z" fill="#5B5A5F"/>
</g>
</g>
</svg>
