<svg xmlns="http://www.w3.org/2000/svg" width="400" height="400" viewBox="0 0 400 400">
  <g id="check-mark" transform="translate(-0.5 511.567)">
    <path id="Path_1" data-name="Path 1" d="M181.948-511.123A200.324,200.324,0,0,0,58.974-453.205C27.9-422.133,8.876-384.173,1.909-338.935c-1.879,12.6-1.879,42.186,0,54.787,6.967,45.16,25.832,82.885,56.908,114.114,31.076,31.072,69.041,50.091,114.286,57.057,12.6,1.878,42.192,1.878,54.795,0,45.166-6.966,82.9-25.828,114.129-56.9,31.076-31.072,50.1-69.032,57.065-114.271,1.879-12.6,1.879-42.186,0-54.787-6.967-45.16-25.832-82.885-56.908-114.114-30.841-30.916-69.276-50.17-113.5-56.9C218.9-511.436,192.046-512.062,181.948-511.123Zm43.992,32.481A167.174,167.174,0,0,1,319.874-430.9q39.217,39.212,47.906,94.7c.939,6.1,1.331,13.306,1.331,24.654s-.391,18.549-1.331,24.654q-8.689,55.413-47.906,94.7-39.217,39.212-94.716,47.9c-11.82,1.878-37.5,1.878-49.315,0q-55.421-8.688-94.716-47.9-39.217-39.212-47.906-94.7c-1.879-11.818-1.879-37.49,0-49.309q8.689-55.413,47.906-94.7c28.806-28.8,63.014-44.769,105.675-49.23C193.142-480.755,218.347-479.816,225.94-478.642Z" transform="translate(0)" fill="#cfa935"/>
    <path id="Path_2" data-name="Path 2" d="M347-341.4c-2.2.9-25.7,23.7-64.7,62.7L221-217.6l-25.7-25.6c-14.2-14-27.2-26.2-28.8-27.1-10.3-5.2-21.9-1.5-27,8.7-3,6-3.2,11.5-.5,17,1.2,2.7,14.2,16.3,36.7,38.7,27.4,27.3,35.6,34.9,38.7,35.9,5.1,1.6,12.8.7,16.9-2.1,4.8-3.3,136.3-134.7,140-139.9,2.8-4,3.2-5.3,3.2-11.2,0-5.8-.4-7.2-3-10.9C365.9-342,355.6-345.1,347-341.4Z" transform="translate(-55.42 -55.518)" fill="#cfa935"/>
  </g>
</svg>
