<svg width="196" height="143" viewBox="0 0 196 143" fill="none" xmlns="http://www.w3.org/2000/svg">
<g id="Group">
<g id="Group_2">
<path id="Vector" d="M153.148 142.615H121.469H112.938H111.096V100.123H124.993C128.517 100.123 130.6 96.1177 128.517 93.2342L101.484 55.8284C99.7622 53.4254 96.1978 53.4254 94.4757 55.8284L67.4426 93.2342C65.36 96.1177 67.4025 100.123 70.9669 100.123H84.8639V142.615H83.0217H74.4912H37.7662C16.7405 141.453 0 121.789 0 100.483C0 85.785 7.96976 72.9693 19.7842 66.0409C18.7029 63.1173 18.1422 59.9935 18.1422 56.7094C18.1422 41.6911 30.2771 29.5562 45.2955 29.5562C48.5394 29.5562 51.6633 30.1169 54.5868 31.1982C63.2775 12.7756 82.0204 0 103.807 0C132.002 0.040049 155.23 21.6265 157.873 49.1402C179.54 52.8647 196 72.9293 196 95.6371C196 119.907 177.097 140.933 153.148 142.615Z" fill="#4D5060"/>
</g>
</g>
</svg>
