<svg width="22" height="22" viewBox="0 0 22 22" fill="none" xmlns="http://www.w3.org/2000/svg">
<g id="downloads 1" clip-path="url(#clip0_476_678)">
<g id="Group">
<g id="Group_2">
<g id="Group_3">
<g id="Group_4">
<path id="Vector" d="M17.1111 22H4.88887C3.58309 22 2.3554 21.4915 1.43195 20.568C0.50854 19.6447 0 18.417 0 17.1111V15.8888C0 15.2138 0.547179 14.6665 1.22223 14.6665C1.89728 14.6665 2.44446 15.2138 2.44446 15.8888V17.1111C2.44446 17.764 2.69875 18.3778 3.16037 18.8395C3.62211 19.3012 4.23594 19.5555 4.88887 19.5555H17.1111C17.764 19.5555 18.3778 19.3012 18.8395 18.8395C19.3012 18.3778 19.5555 17.7639 19.5555 17.1111V15.8888C19.5555 15.2138 20.1027 14.6665 20.7777 14.6665C21.4527 14.6665 22 15.2138 22 15.8888V17.1111C22 18.4169 21.4915 19.6445 20.568 20.568C19.6446 21.4915 18.4169 22 17.1111 22ZM11 17.111C10.8309 17.111 10.6699 17.0767 10.5235 17.0147C10.3869 16.957 10.2585 16.8731 10.1462 16.7634C10.1461 16.7634 10.1461 16.7633 10.1461 16.7633C10.1453 16.7626 10.1445 16.7618 10.1436 16.7609C10.1434 16.7608 10.1432 16.7605 10.143 16.7603C10.1423 16.7597 10.1417 16.759 10.141 16.7584C10.1406 16.758 10.1402 16.7576 10.1398 16.7571C10.1394 16.7567 10.1388 16.7562 10.1384 16.7558C10.1376 16.755 10.1366 16.754 10.1358 16.7532L5.24687 11.8642C4.76958 11.3869 4.76958 10.613 5.24687 10.1357C5.72416 9.65842 6.49809 9.65837 6.97538 10.1357L9.77779 12.9381V1.22223C9.77775 0.547179 10.3249 0 11 0C11.675 0 12.2222 0.547179 12.2222 1.22223V12.9381L15.0246 10.1357C15.5019 9.65842 16.2759 9.65842 16.7531 10.1357C17.2304 10.613 17.2304 11.3869 16.7531 11.8642L11.8642 16.7531C11.8634 16.7539 11.8624 16.7549 11.8616 16.7557C11.8611 16.7562 11.8606 16.7567 11.8602 16.7571C11.8598 16.7575 11.8594 16.7579 11.859 16.7583C11.8584 16.759 11.8577 16.7596 11.8571 16.7602C11.8569 16.7604 11.8566 16.7607 11.8564 16.7609C11.8556 16.7617 11.8548 16.7625 11.854 16.7632C11.8539 16.7632 11.8539 16.7633 11.8539 16.7633C11.8404 16.7764 11.8268 16.7892 11.8129 16.8015C11.7106 16.8928 11.5966 16.964 11.476 17.0148C11.4756 17.015 11.4753 17.0151 11.4748 17.0153C11.4744 17.0155 11.474 17.0157 11.4735 17.0159C11.3278 17.0772 11.1679 17.111 11 17.111Z" fill="white"/>
</g>
</g>
</g>
</g>
</g>
<defs>
<clipPath id="clip0_476_678">
<rect width="22" height="22" fill="white"/>
</clipPath>
</defs>
</svg>
