<svg width="50" height="50" viewBox="0 0 50 50" fill="none" xmlns="http://www.w3.org/2000/svg">
<rect width="50" height="50" rx="10" fill="#F3F3F3"/>
<path fill-rule="evenodd" clip-rule="evenodd" d="M25 12C32.1747 12 38 17.8253 38 25C38 32.1747 32.1747 38 25 38C17.8253 38 12 32.1747 12 25C12 17.8253 17.8253 12 25 12ZM25 14.6002C19.2602 14.6002 14.6002 19.2602 14.6002 25C14.6002 30.7398 19.2602 35.3998 25 35.3998C30.7398 35.3998 35.3998 30.7398 35.3998 25C35.3998 19.2602 30.7398 14.6002 25 14.6002ZM24.8855 29.8254C25.6028 29.8254 26.1853 30.4079 26.1853 31.1251C26.1853 31.8427 25.6028 32.4252 24.8855 32.4252C24.1679 32.4252 23.5854 31.8427 23.5854 31.1251C23.5854 30.4079 24.1679 29.8254 24.8855 29.8254ZM26.2614 27.038V27.5294C26.2614 28.2548 25.6708 28.8266 24.9613 28.8266C24.2518 28.8266 23.6612 28.2619 23.6612 27.5266V27.038C23.6612 24.9775 24.5857 23.9729 25.5894 23.1539C25.8695 22.9255 26.1569 22.7181 26.4096 22.4884C26.6005 22.3153 26.7812 22.1359 26.8283 21.8482C26.91 21.3503 26.8476 20.9574 26.6533 20.6695C26.3606 20.2361 25.8362 20.053 25.3906 20.0211C23.5355 19.8882 23.0993 21.6953 23.0993 21.6953C22.9311 22.3929 22.2282 22.8226 21.5306 22.6541C20.8333 22.4859 20.4037 21.783 20.5718 21.0854C20.5718 21.0854 21.5247 17.138 25.5759 17.4278C26.7356 17.5105 28.0473 18.0874 28.8082 19.2149C29.3159 19.9672 29.6073 20.9699 29.3939 22.2697C29.2026 23.4344 28.5106 24.1557 27.666 24.8253C27.0483 25.3148 26.2614 25.7532 26.2614 27.038Z" fill="#5A677E"/>
</svg>
