<svg xmlns="http://www.w3.org/2000/svg" width="14" height="9" viewBox="0 0 14 9" fill="none">
  <path d="M5.85429 4.9931C5.14922 5.70176 4.47483 6.38063 3.79977 7.05985C3.22194 7.6398 2.64412 8.21886 2.06629 8.79702C1.87727 8.9854 1.64925 9.04361 1.39223 8.96766C1.13521 8.89171 0.982193 8.70869 0.925521 8.45006C0.87085 8.19845 0.966525 7.99201 1.14187 7.81434C1.94328 7.01044 2.74401 6.20631 3.54408 5.40197C4.13725 4.80685 4.73085 4.21206 5.32491 3.61761C5.6506 3.29306 6.02763 3.29139 6.352 3.61259C6.8027 4.05871 7.25041 4.50817 7.69511 4.96098C7.74545 5.01184 7.77712 5.0811 7.81279 5.13463L11.5585 1.37186C11.5051 1.36852 11.4538 1.36283 11.4021 1.36249C10.9687 1.36249 10.5354 1.36684 10.102 1.35982C9.81563 1.35547 9.59995 1.21594 9.48227 0.954631C9.36993 0.705029 9.40726 0.462788 9.58228 0.249991C9.64506 0.171122 9.72505 0.107781 9.81608 0.0648524C9.90712 0.0219241 10.0068 0.000555933 10.1073 0.00239598C11.1447 5.38642e-05 12.1848 -0.00195366 13.2236 0.00339974C13.616 0.00540726 13.9063 0.304528 13.9077 0.697668C13.911 1.73489 13.911 2.77211 13.9077 3.80933C13.9077 4.20347 13.6 4.51196 13.2273 4.50862C12.8546 4.50527 12.5672 4.21083 12.5605 3.81569C12.5542 3.3921 12.5589 2.96818 12.5589 2.54426V2.3686L12.4982 2.32912C12.4605 2.38874 12.4184 2.44544 12.3722 2.49875C11.0459 3.83242 9.71851 5.16508 8.39017 6.49674C8.04448 6.84303 7.67078 6.8437 7.32641 6.49975C6.87415 6.04783 6.42267 5.59447 5.97196 5.13965C5.93329 5.1005 5.90229 5.05232 5.85429 4.9931Z" fill="#04CE00"/>
</svg>